<svg width="36" height="36" viewBox="0 0 36 36" fill="none" xmlns="http://www.w3.org/2000/svg">
<g filter="url(#filter0_d_1_3966)">
<rect x="8.08398" y="6.59375" width="20" height="20" rx="10" fill="#E60023"/>
<path d="M17.7777 10.4509C14.4951 10.4509 11.834 13.112 11.834 16.3946C11.834 18.9127 13.4007 21.0653 15.6117 21.9314C15.5597 21.4611 15.5128 20.7378 15.6323 20.2245C15.7403 19.7606 16.3293 17.27 16.3293 17.27C16.3293 17.27 16.1515 16.914 16.1515 16.3876C16.1515 15.5611 16.6305 14.9441 17.227 14.9441C17.7341 14.9441 17.979 15.3248 17.979 15.7813C17.979 16.2913 17.6543 17.0537 17.4868 17.7603C17.3467 18.3519 17.7834 18.8344 18.3669 18.8344C19.4233 18.8344 20.2354 17.7205 20.2354 16.1126C20.2354 14.6894 19.2128 13.6944 17.7526 13.6944C16.0614 13.6944 15.0688 14.9629 15.0688 16.2738C15.0688 16.7847 15.2656 17.3325 15.5111 17.6303C15.5597 17.6891 15.5668 17.7407 15.5523 17.8008C15.5072 17.9885 15.407 18.3922 15.3873 18.4748C15.3613 18.5836 15.3011 18.6067 15.1885 18.5543C14.4461 18.2088 13.982 17.1234 13.982 16.2517C13.982 14.3767 15.3443 12.6548 17.9093 12.6548C19.9712 12.6548 21.5735 14.1241 21.5735 16.0877C21.5735 18.1361 20.2819 19.7847 18.4892 19.7847C17.8869 19.7847 17.3207 19.4718 17.1269 19.1022C17.1269 19.1022 16.8289 20.237 16.7566 20.5151C16.6224 21.0314 16.2602 21.6785 16.0179 22.0733C16.574 22.2455 17.165 22.3384 17.7777 22.3384C21.0604 22.3384 23.7215 19.6773 23.7215 16.3946C23.7215 13.112 21.0604 10.4509 17.7777 10.4509Z" fill="white"/>
</g>
<defs>
<filter id="filter0_d_1_3966" x="0.583984" y="0.59375" width="35" height="35" filterUnits="userSpaceOnUse" color-interpolation-filters="sRGB">
<feFlood flood-opacity="0" result="BackgroundImageFix"/>
<feColorMatrix in="SourceAlpha" type="matrix" values="0 0 0 0 0 0 0 0 0 0 0 0 0 0 0 0 0 0 127 0" result="hardAlpha"/>
<feOffset dy="1.5"/>
<feGaussianBlur stdDeviation="3.75"/>
<feComposite in2="hardAlpha" operator="out"/>
<feColorMatrix type="matrix" values="0 0 0 0 0.0984896 0 0 0 0 0.364094 0 0 0 0 0.7625 0 0 0 0.07 0"/>
<feBlend mode="normal" in2="BackgroundImageFix" result="effect1_dropShadow_1_3966"/>
<feBlend mode="normal" in="SourceGraphic" in2="effect1_dropShadow_1_3966" result="shape"/>
</filter>
</defs>
</svg>
