<svg width="41" height="41" viewBox="0 0 41 41" fill="none" xmlns="http://www.w3.org/2000/svg">
<g filter="url(#filter0_d_1_3936)">
<rect x="10.2754" y="8.5459" width="20" height="20" rx="10" fill="#FF550D"/>
<path d="M26.0442 18.0591C26.0459 18.1763 26.0314 18.2933 26.0006 18.4064C25.9698 18.5195 25.9232 18.6279 25.862 18.728C25.8011 18.8281 25.7262 18.9192 25.6398 18.9985C25.5534 19.0778 25.4563 19.1446 25.3514 19.1967C25.3537 19.228 25.3556 19.2594 25.3567 19.2908C25.3593 19.3535 25.3593 19.4163 25.3567 19.479C25.3556 19.5104 25.3537 19.5419 25.3514 19.5731C25.3514 21.4891 23.1189 23.0458 20.3646 23.0458C17.6104 23.0458 15.3779 21.4891 15.3779 19.5731C15.3756 19.5419 15.3736 19.5104 15.3726 19.479C15.37 19.4163 15.37 19.3535 15.3726 19.2908C15.3736 19.2594 15.3756 19.228 15.3779 19.1967C15.2134 19.1211 15.0673 19.0107 14.9497 18.873C14.8321 18.7354 14.7458 18.5738 14.6968 18.3995C14.6479 18.2252 14.6375 18.0423 14.6663 17.8635C14.6951 17.6847 14.7624 17.5143 14.8636 17.3641C14.9647 17.214 15.0973 17.0876 15.2521 16.9938C15.407 16.9 15.5803 16.8411 15.7602 16.821C15.9402 16.8008 16.1223 16.82 16.2941 16.8772C16.4659 16.9345 16.6232 17.0284 16.755 17.1524C16.9998 16.9865 17.2563 16.8385 17.5225 16.7096C17.7887 16.5808 18.0639 16.4714 18.346 16.3824C18.628 16.2934 18.9163 16.2252 19.2082 16.178C19.5001 16.1307 19.7952 16.1048 20.0909 16.1003L20.7239 13.1323C20.7309 13.0978 20.7448 13.0653 20.7647 13.0362C20.7844 13.0074 20.8098 12.9826 20.8391 12.9635C20.8686 12.9445 20.9016 12.9315 20.9362 12.9251C20.9706 12.9189 21.0061 12.9195 21.0404 12.927L23.136 13.3461C23.3475 12.9828 23.7914 12.8271 24.1834 12.9785C24.5753 13.1299 24.7994 13.5437 24.7118 13.9547C24.6243 14.3657 24.2509 14.6522 23.8314 14.6306C23.4116 14.609 23.0697 14.2857 23.0248 13.8679L21.1943 13.483L20.6383 16.1517C20.9304 16.1579 21.2219 16.1852 21.5102 16.2334C22.0874 16.3296 22.6477 16.5086 23.1738 16.765C23.4366 16.8928 23.6898 17.0395 23.9315 17.2038C24.1052 17.0369 24.3236 16.924 24.5602 16.8785C24.7967 16.8329 25.0414 16.8567 25.2647 16.9471C25.4881 17.0375 25.6805 17.1906 25.8188 17.3879C25.9571 17.5852 26.0354 17.8183 26.0442 18.0591ZM17.5556 19.2419C17.5988 19.3456 17.6617 19.4399 17.7413 19.5192C17.8206 19.5988 17.9149 19.6616 18.0186 19.7048C18.1224 19.7477 18.2337 19.7698 18.346 19.7698C18.692 19.7698 19.0038 19.5613 19.1363 19.2419C19.2687 18.9222 19.1954 18.5544 18.9507 18.3097C18.7061 18.0651 18.3383 17.9918 18.0186 18.1241C17.6991 18.2567 17.4906 18.5685 17.4906 18.9145C17.4906 19.0267 17.5127 19.1379 17.5556 19.2419ZM22.4547 21.2951C22.4985 21.2524 22.5235 21.194 22.5244 21.1328C22.5253 21.0715 22.5015 21.0124 22.4588 20.9686C22.416 20.9248 22.3576 20.8997 22.2965 20.8989C22.2351 20.898 22.1761 20.9218 22.1267 20.9588C21.998 21.051 21.8618 21.1322 21.7195 21.2015C21.5772 21.2708 21.4292 21.3279 21.2773 21.3723C21.1255 21.4166 20.97 21.448 20.8128 21.4662C20.6555 21.4844 20.497 21.4891 20.339 21.4805C20.1812 21.4876 20.0229 21.4812 19.8662 21.4615C19.7094 21.442 19.5546 21.4091 19.4034 21.3631C19.252 21.3174 19.1051 21.2588 18.9638 21.1882C18.8224 21.1177 18.6873 21.0351 18.5598 20.9417C18.5156 20.9053 18.4593 20.8867 18.402 20.8895C18.3447 20.8923 18.2906 20.9164 18.25 20.9568C18.2096 20.9975 18.1854 21.0516 18.1826 21.1089C18.1798 21.1662 18.1984 21.2224 18.2348 21.2667C18.3851 21.38 18.5449 21.4801 18.7123 21.5661C18.8797 21.652 19.0544 21.7232 19.2341 21.7793C19.4137 21.8353 19.5978 21.8757 19.7845 21.9003C19.9712 21.9247 20.1596 21.933 20.3475 21.9253C20.5355 21.933 20.7239 21.9247 20.9106 21.9003C21.2845 21.8511 21.6471 21.7381 21.9827 21.5661C22.1502 21.4801 22.3099 21.38 22.4603 21.2667L22.4547 21.2951ZM22.2977 19.8383C22.4136 19.8395 22.5287 19.8171 22.6358 19.7726C22.7429 19.7279 22.8398 19.662 22.9206 19.5789C23.0015 19.4957 23.0643 19.3969 23.1058 19.2885C23.1473 19.1802 23.1663 19.0646 23.1616 18.9487C23.1616 18.6027 22.9531 18.2909 22.6337 18.1583C22.314 18.026 21.9462 18.0993 21.7016 18.3439C21.4569 18.5886 21.3836 18.9564 21.5159 19.2761C21.6485 19.5955 21.9603 19.804 22.3063 19.804L22.2977 19.8383Z" fill="white"/>
</g>
<defs>
<filter id="filter0_d_1_3936" x="0.275391" y="0.545898" width="40" height="40" filterUnits="userSpaceOnUse" color-interpolation-filters="sRGB">
<feFlood flood-opacity="0" result="BackgroundImageFix"/>
<feColorMatrix in="SourceAlpha" type="matrix" values="0 0 0 0 0 0 0 0 0 0 0 0 0 0 0 0 0 0 127 0" result="hardAlpha"/>
<feOffset dy="2"/>
<feGaussianBlur stdDeviation="5"/>
<feComposite in2="hardAlpha" operator="out"/>
<feColorMatrix type="matrix" values="0 0 0 0 0.0984896 0 0 0 0 0.364094 0 0 0 0 0.7625 0 0 0 0.07 0"/>
<feBlend mode="normal" in2="BackgroundImageFix" result="effect1_dropShadow_1_3936"/>
<feBlend mode="normal" in="SourceGraphic" in2="effect1_dropShadow_1_3936" result="shape"/>
</filter>
</defs>
</svg>
