<svg width="41" height="41" viewBox="0 0 41 41" fill="none" xmlns="http://www.w3.org/2000/svg">
<g filter="url(#filter0_d_1_3951)">
<rect x="10.2754" y="8.07031" width="20" height="20" rx="10" fill="#1ED760"/>
<path d="M20.1149 11.9271C16.7524 11.9271 14.0264 14.6531 14.0264 18.0156C14.0264 21.3783 16.7524 24.104 20.1149 24.104C23.4778 24.104 26.2035 21.3783 26.2035 18.0156C26.2035 14.6533 23.4778 11.9274 20.1148 11.9274L20.1149 11.9271ZM22.9071 20.7085C22.798 20.8873 22.5639 20.944 22.3851 20.8342C20.9555 19.961 19.1559 19.7633 17.0366 20.2475C16.8323 20.294 16.6288 20.1661 16.5822 19.9618C16.5355 19.7575 16.6629 19.5539 16.8677 19.5074C19.187 18.9775 21.1764 19.2056 22.7813 20.1864C22.9602 20.2962 23.0169 20.5296 22.9071 20.7085ZM23.6523 19.0506C23.5149 19.274 23.2226 19.3445 22.9994 19.2071C21.3628 18.2011 18.8681 17.9098 16.9323 18.4974C16.6813 18.5732 16.4161 18.4318 16.3399 18.1811C16.2643 17.9301 16.4059 17.6655 16.6565 17.5891C18.8677 16.9182 21.6166 17.2432 23.496 18.3981C23.7192 18.5355 23.7897 18.8277 23.6523 19.0506ZM23.7163 17.3243C21.754 16.1588 18.5164 16.0516 16.6429 16.6202C16.342 16.7115 16.0239 16.5416 15.9327 16.2408C15.8415 15.9398 16.0112 15.6219 16.3123 15.5304C18.463 14.8775 22.0383 15.0036 24.2975 16.3448C24.5687 16.5054 24.6574 16.8549 24.4967 17.1252C24.3368 17.3958 23.9863 17.485 23.7166 17.3243H23.7163Z" fill="white"/>
</g>
<defs>
<filter id="filter0_d_1_3951" x="0.275391" y="0.0703125" width="40" height="40" filterUnits="userSpaceOnUse" color-interpolation-filters="sRGB">
<feFlood flood-opacity="0" result="BackgroundImageFix"/>
<feColorMatrix in="SourceAlpha" type="matrix" values="0 0 0 0 0 0 0 0 0 0 0 0 0 0 0 0 0 0 127 0" result="hardAlpha"/>
<feOffset dy="2"/>
<feGaussianBlur stdDeviation="5"/>
<feComposite in2="hardAlpha" operator="out"/>
<feColorMatrix type="matrix" values="0 0 0 0 0.0984896 0 0 0 0 0.364094 0 0 0 0 0.7625 0 0 0 0.07 0"/>
<feBlend mode="normal" in2="BackgroundImageFix" result="effect1_dropShadow_1_3951"/>
<feBlend mode="normal" in="SourceGraphic" in2="effect1_dropShadow_1_3951" result="shape"/>
</filter>
</defs>
</svg>
