<svg width="41" height="41" viewBox="0 0 41 41" fill="none" xmlns="http://www.w3.org/2000/svg">
<g filter="url(#filter0_d_1_3906)">
<rect x="10.2754" y="8.59375" width="20" height="20" rx="10" fill="#1D9BF0"/>
<path d="M21.9571 14.4067V14.4049H22.426L22.5973 14.4391C22.7115 14.4613 22.8152 14.4905 22.9084 14.5265C23.0016 14.5625 23.0917 14.6045 23.1789 14.6525C23.2661 14.7006 23.3451 14.7495 23.4161 14.7993C23.4864 14.8485 23.5495 14.9008 23.6054 14.956C23.6607 15.0118 23.747 15.0262 23.8642 14.9992C23.9814 14.9722 24.1077 14.9347 24.2429 14.8867C24.3782 14.8386 24.5119 14.7846 24.6442 14.7246C24.7764 14.6645 24.857 14.6264 24.8859 14.6102C24.9141 14.5934 24.9291 14.5844 24.9309 14.5832L24.9327 14.5805L24.9418 14.576L24.9508 14.5715L24.9598 14.567L24.9688 14.5625L24.9706 14.5598L24.9733 14.558L24.976 14.5562L24.9778 14.5535L24.9868 14.5508L24.9959 14.549L24.9941 14.5625L24.9914 14.576L24.9868 14.5895L24.9823 14.603L24.9778 14.612L24.9733 14.621L24.9688 14.6345C24.9658 14.6435 24.9628 14.6555 24.9598 14.6705C24.9568 14.6856 24.9282 14.7456 24.8741 14.8506C24.82 14.9557 24.7524 15.0622 24.6712 15.1703C24.5901 15.2784 24.5174 15.36 24.453 15.4152C24.3881 15.4711 24.3451 15.5101 24.3241 15.5323C24.303 15.5551 24.2775 15.5761 24.2474 15.5953L24.2024 15.625L24.1933 15.6295L24.1843 15.634L24.1825 15.6367L24.1798 15.6385L24.1771 15.6403L24.1753 15.643L24.1663 15.6476L24.1573 15.6521L24.1555 15.6548L24.1528 15.6566L24.1501 15.6584L24.1482 15.6611L24.1465 15.6638L24.1437 15.6656L24.141 15.6674L24.1392 15.6701H24.1843L24.4368 15.616C24.6051 15.58 24.7659 15.5365 24.9192 15.4855L25.1627 15.4044L25.1897 15.3954L25.2033 15.3909L25.2123 15.3864L25.2213 15.3819L25.2303 15.3774L25.2393 15.3729L25.2574 15.3702L25.2754 15.3684V15.3864L25.2709 15.3882L25.2664 15.3909L25.2646 15.3936L25.2619 15.3954L25.2592 15.3972L25.2574 15.3999L25.2556 15.4026L25.2528 15.4044L25.2501 15.4062L25.2483 15.4089L25.2465 15.4116L25.2438 15.4134L25.2393 15.4224L25.2348 15.4314L25.2321 15.4332C25.2309 15.435 25.1927 15.4861 25.1176 15.5863C25.0425 15.6872 25.0019 15.7382 24.9959 15.7394C24.9899 15.7412 24.9814 15.7502 24.9706 15.7664C24.9604 15.7832 24.8967 15.8502 24.7794 15.9672C24.6622 16.0843 24.5474 16.1884 24.435 16.2797C24.322 16.3715 24.2649 16.4844 24.2637 16.6183C24.2619 16.7515 24.255 16.9022 24.2429 17.0703C24.2309 17.2384 24.2084 17.42 24.1753 17.6151C24.1422 17.8102 24.0911 18.0308 24.022 18.2769C23.9529 18.523 23.8687 18.7632 23.7695 18.9973C23.6703 19.2314 23.5666 19.4415 23.4584 19.6276C23.3502 19.8137 23.251 19.9713 23.1609 20.1004C23.0707 20.2294 22.979 20.351 22.8859 20.4651C22.7927 20.5791 22.6749 20.7076 22.5324 20.8505C22.3893 20.9927 22.3112 21.0708 22.2979 21.0846C22.2841 21.0978 22.2252 21.147 22.1212 21.2322C22.0178 21.3181 21.9066 21.4039 21.7876 21.4898C21.6691 21.575 21.5603 21.6462 21.4611 21.7032C21.362 21.7602 21.2423 21.8254 21.1023 21.8986C20.9628 21.9724 20.8119 22.0409 20.6496 22.1039C20.4873 22.1669 20.316 22.2255 20.1356 22.2795C19.9553 22.3335 19.781 22.3755 19.6126 22.4056C19.4443 22.4356 19.2535 22.4611 19.04 22.4821L18.7199 22.5136V22.5181H18.1338V22.5136L18.0572 22.5091C18.0061 22.5061 17.964 22.5031 17.9309 22.5001C17.8979 22.4971 17.7731 22.4806 17.5567 22.4506C17.3403 22.4206 17.1705 22.3905 17.0473 22.3605C16.924 22.3305 16.7407 22.2735 16.4972 22.1894C16.2537 22.1054 16.0455 22.0205 15.8723 21.9346C15.6998 21.8494 15.5916 21.7953 15.5477 21.7725C15.5044 21.7503 15.4557 21.7227 15.4016 21.6897L15.3205 21.6402L15.3187 21.6375L15.316 21.6357L15.3133 21.6339L15.3115 21.6312L15.3024 21.6267L15.2934 21.6222L15.2916 21.6194L15.2889 21.6176L15.2862 21.6158L15.2844 21.6131L15.2826 21.6104L15.2799 21.6086H15.2754V21.5906L15.2844 21.5924L15.2934 21.5951L15.334 21.5996C15.3611 21.6026 15.4347 21.6071 15.5549 21.6131C15.6752 21.6192 15.8029 21.6192 15.9381 21.6131C16.0734 21.6071 16.2117 21.5936 16.3529 21.5726C16.4942 21.5516 16.661 21.5156 16.8534 21.4646C17.0458 21.4135 17.2225 21.3529 17.3836 21.2827C17.5441 21.2118 17.6583 21.159 17.7263 21.1242C17.7936 21.09 17.8964 21.0263 18.0346 20.9333L18.242 20.7937L18.2438 20.791L18.2465 20.7892L18.2492 20.7874L18.251 20.7847L18.2528 20.782L18.2556 20.7802L18.2583 20.7784L18.2601 20.7757L18.2691 20.773L18.2781 20.7712L18.2799 20.7622L18.2826 20.7532L18.2853 20.7514L18.2871 20.7487L18.215 20.7442C18.1669 20.7412 18.1203 20.7382 18.0752 20.7352C18.0301 20.7322 17.9595 20.7187 17.8633 20.6947C17.7671 20.6707 17.6634 20.6346 17.5522 20.5866C17.441 20.5386 17.3328 20.4816 17.2276 20.4155C17.1224 20.3495 17.0464 20.2946 16.9995 20.2507C16.9532 20.2075 16.8931 20.1463 16.8191 20.067C16.7458 19.9872 16.6821 19.9053 16.628 19.8212C16.5739 19.7372 16.5222 19.6402 16.4729 19.5304L16.398 19.3665L16.3935 19.353L16.389 19.3395L16.3863 19.3305L16.3845 19.3215L16.398 19.3233L16.4115 19.326L16.5107 19.3395C16.5769 19.3485 16.6806 19.3515 16.8218 19.3485C16.9631 19.3455 17.0608 19.3395 17.1149 19.3305C17.169 19.3215 17.2021 19.3155 17.2141 19.3125L17.2321 19.308L17.2547 19.3034L17.2772 19.2989L17.279 19.2962L17.2817 19.2944L17.2844 19.2926L17.2862 19.2899L17.2682 19.2854L17.2501 19.2809L17.2321 19.2764L17.2141 19.2719L17.196 19.2674C17.184 19.2644 17.163 19.2584 17.1329 19.2494C17.1029 19.2404 17.0217 19.2074 16.8895 19.1504C16.7572 19.0933 16.652 19.0378 16.5739 18.9838C16.4955 18.9296 16.4208 18.8703 16.3502 18.8064C16.2799 18.7416 16.2027 18.6581 16.1185 18.5561C16.0343 18.454 15.9592 18.3354 15.8931 18.2004C15.8269 18.0653 15.7773 17.9362 15.7443 17.8132C15.7113 17.6908 15.6896 17.5658 15.6794 17.4395L15.6631 17.2504L15.6721 17.2522L15.6812 17.2549L15.6902 17.2594L15.6992 17.2639L15.7082 17.2684L15.7172 17.2729L15.857 17.3359C15.9502 17.378 16.0659 17.414 16.2042 17.444C16.3424 17.474 16.4251 17.4905 16.4521 17.4935L16.4927 17.498H16.5739L16.5721 17.4953L16.5693 17.4935L16.5666 17.4917L16.5648 17.489L16.563 17.4863L16.5603 17.4845L16.5576 17.4827L16.5558 17.48L16.5468 17.4755L16.5378 17.471L16.536 17.4683L16.5333 17.4665L16.5306 17.4647L16.5288 17.462L16.5198 17.4575L16.5107 17.453L16.5089 17.4503C16.5071 17.4491 16.4813 17.4299 16.4314 17.3927C16.3821 17.3548 16.3304 17.3059 16.2763 17.2459C16.2222 17.1858 16.1681 17.1228 16.114 17.0568C16.0598 16.9906 16.0115 16.9198 15.9697 16.8452C15.9276 16.7701 15.8831 16.6747 15.8363 16.5588C15.79 16.4436 15.7548 16.3274 15.7308 16.2103C15.7067 16.0933 15.6932 15.9777 15.6902 15.8637C15.6872 15.7496 15.6902 15.6521 15.6992 15.571C15.7082 15.49 15.7262 15.3984 15.7533 15.2964C15.7804 15.1943 15.8194 15.0863 15.8705 14.9722L15.9472 14.8011L15.9517 14.7876L15.9562 14.7741L15.9589 14.7723L15.9607 14.7696L15.9625 14.7669L15.9652 14.7651L15.9679 14.7669L15.9697 14.7696L15.9715 14.7723L15.9742 14.7741L15.9769 14.7759L15.9787 14.7786L15.9805 14.7813L15.9832 14.7831L15.9877 14.7921L15.9923 14.8011L15.995 14.8029L15.9968 14.8056L16.1185 14.9407C16.1996 15.0307 16.2958 15.1313 16.407 15.2423C16.5183 15.3534 16.5799 15.411 16.5919 15.4152C16.6039 15.42 16.6189 15.4338 16.637 15.4567C16.655 15.4789 16.7151 15.532 16.8173 15.616C16.9195 15.7001 17.0533 15.7976 17.2186 15.9087C17.3839 16.0197 17.5672 16.1293 17.7686 16.2374C17.97 16.3454 18.1864 16.443 18.4179 16.53C18.6493 16.6171 18.8116 16.6741 18.9048 16.7011C18.998 16.7281 19.1573 16.7626 19.3827 16.8047C19.6081 16.8467 19.778 16.8737 19.8922 16.8857C20.0064 16.8977 20.0845 16.9046 20.1266 16.9064L20.1897 16.9082L20.1879 16.8947L20.1852 16.8812L20.1672 16.7686C20.1552 16.6936 20.1492 16.5885 20.1492 16.4535C20.1492 16.3184 20.1597 16.1938 20.1807 16.0798C20.2018 15.9657 20.2333 15.8502 20.2754 15.7331C20.3175 15.616 20.3587 15.5221 20.3989 15.4512C20.4398 15.381 20.4933 15.3009 20.5594 15.2108C20.6256 15.1208 20.7112 15.0277 20.8164 14.9317C20.9216 14.8356 21.0418 14.7501 21.1771 14.675C21.3124 14.6 21.4371 14.543 21.5513 14.504C21.6655 14.4649 21.7617 14.4394 21.8399 14.4274C21.918 14.4154 21.9571 14.4085 21.9571 14.4067Z" fill="white"/>
</g>
<defs>
<filter id="filter0_d_1_3906" x="0.275391" y="0.59375" width="40" height="40" filterUnits="userSpaceOnUse" color-interpolation-filters="sRGB">
<feFlood flood-opacity="0" result="BackgroundImageFix"/>
<feColorMatrix in="SourceAlpha" type="matrix" values="0 0 0 0 0 0 0 0 0 0 0 0 0 0 0 0 0 0 127 0" result="hardAlpha"/>
<feOffset dy="2"/>
<feGaussianBlur stdDeviation="5"/>
<feComposite in2="hardAlpha" operator="out"/>
<feColorMatrix type="matrix" values="0 0 0 0 0.0984896 0 0 0 0 0.364094 0 0 0 0 0.7625 0 0 0 0.07 0"/>
<feBlend mode="normal" in2="BackgroundImageFix" result="effect1_dropShadow_1_3906"/>
<feBlend mode="normal" in="SourceGraphic" in2="effect1_dropShadow_1_3906" result="shape"/>
</filter>
</defs>
</svg>
