<svg width="41" height="41" viewBox="0 0 41 41" fill="none" xmlns="http://www.w3.org/2000/svg">
<g filter="url(#filter0_d_1_3876)">
<rect x="10.2754" y="8.59375" width="20" height="20" rx="10" fill="#4353FF"/>
<path d="M23.1837 17.1242L22.3076 19.8855C22.3076 19.6741 21.7034 15.094 21.7034 15.094C20.3136 15.094 19.5765 16.0789 19.1898 17.1242L18.1203 19.8916C18.1203 19.6922 17.9692 17.1484 17.9692 17.1484C17.9176 16.5977 17.6659 16.0851 17.2617 15.7075C16.8574 15.33 16.3288 15.1139 15.7759 15.1L16.9118 22.0366C18.362 22.0366 19.1475 21.0517 19.5523 20.0064L20.4587 17.6499C20.4587 17.7466 21.0629 22.0366 21.0629 22.0366C21.6559 22.0358 22.2332 21.8463 22.7112 21.4954C23.1892 21.1444 23.5431 20.6504 23.7215 20.0849L25.7759 15.094C24.3257 15.094 23.5644 16.0789 23.1777 17.1242H23.1837Z" fill="white"/>
</g>
<defs>
<filter id="filter0_d_1_3876" x="0.275391" y="0.59375" width="40" height="40" filterUnits="userSpaceOnUse" color-interpolation-filters="sRGB">
<feFlood flood-opacity="0" result="BackgroundImageFix"/>
<feColorMatrix in="SourceAlpha" type="matrix" values="0 0 0 0 0 0 0 0 0 0 0 0 0 0 0 0 0 0 127 0" result="hardAlpha"/>
<feOffset dy="2"/>
<feGaussianBlur stdDeviation="5"/>
<feComposite in2="hardAlpha" operator="out"/>
<feColorMatrix type="matrix" values="0 0 0 0 0.0984896 0 0 0 0 0.364094 0 0 0 0 0.7625 0 0 0 0.07 0"/>
<feBlend mode="normal" in2="BackgroundImageFix" result="effect1_dropShadow_1_3876"/>
<feBlend mode="normal" in="SourceGraphic" in2="effect1_dropShadow_1_3876" result="shape"/>
</filter>
</defs>
</svg>
