<svg width="20" height="20" viewBox="0 0 20 20" fill="none" xmlns="http://www.w3.org/2000/svg">
<path fill-rule="evenodd" clip-rule="evenodd" d="M3.57733 3.57742C3.90277 3.25198 4.4304 3.25198 4.75584 3.57742L9.99992 8.8215L15.244 3.57742C15.5694 3.25198 16.0971 3.25198 16.4225 3.57742C16.7479 3.90286 16.7479 4.4305 16.4225 4.75593L11.1784 10L16.4225 15.2441C16.7479 15.5695 16.7479 16.0972 16.4225 16.4226C16.0971 16.748 15.5694 16.748 15.244 16.4226L9.99992 11.1785L4.75584 16.4226C4.4304 16.748 3.90277 16.748 3.57733 16.4226C3.25189 16.0972 3.25189 15.5695 3.57733 15.2441L8.82141 10L3.57733 4.75593C3.25189 4.4305 3.25189 3.90286 3.57733 3.57742Z" fill="white"/>
</svg>
