<svg width="13" height="12" viewBox="0 0 13 12" fill="none" xmlns="http://www.w3.org/2000/svg">
<path d="M12.9429 10.553C12.9429 10.6754 12.8942 10.7928 12.8077 10.8794C12.7211 10.9659 12.6037 11.0146 12.4813 11.0146H1.40441C1.282 11.0146 1.16461 10.9659 1.07805 10.8794C0.991497 10.7928 0.942871 10.6754 0.942871 10.553V1.32226C0.942871 1.19985 0.991497 1.08245 1.07805 0.995899C1.16461 0.909344 1.282 0.860718 1.40441 0.860718C1.52682 0.860718 1.64421 0.909344 1.73077 0.995899C1.81732 1.08245 1.86595 1.19985 1.86595 1.32226V7.59341L4.76787 4.68572C4.85538 4.59905 4.97356 4.55043 5.09672 4.55043C5.21988 4.55043 5.33806 4.59905 5.42556 4.68572L6.94287 6.2088L9.75249 3.39918L8.92172 2.57418C8.85911 2.50745 8.81667 2.42435 8.79931 2.33451C8.78195 2.24466 8.79039 2.15174 8.82364 2.06649C8.85957 1.98293 8.9191 1.91168 8.99494 1.86146C9.07077 1.81125 9.15961 1.78426 9.25056 1.78379H11.5583C11.6807 1.78379 11.7981 1.83242 11.8846 1.91898C11.9712 2.00553 12.0198 2.12293 12.0198 2.24533V4.55303C12.0201 4.64415 11.9934 4.73331 11.9431 4.80928C11.8928 4.88526 11.8211 4.94464 11.7371 4.97995C11.6802 5.00256 11.6195 5.0143 11.5583 5.01456C11.4357 5.01405 11.318 4.96656 11.2294 4.88187L10.4044 4.0511L7.27172 7.18956C7.18421 7.27623 7.06603 7.32485 6.94287 7.32485C6.81971 7.32485 6.70153 7.27623 6.61403 7.18956L5.09672 5.66649L1.86595 8.89726V10.0915H12.4813C12.6037 10.0915 12.7211 10.1401 12.8077 10.2267C12.8942 10.3132 12.9429 10.4306 12.9429 10.553Z" fill="#AEB9E1"/>
</svg>
