<svg width="13" height="13" viewBox="0 0 13 13" fill="none" xmlns="http://www.w3.org/2000/svg">
<path d="M6.44027 1.04506C6.6018 0.767734 7.00245 0.767734 7.16398 1.04506L8.87528 3.98319C8.93445 4.08478 9.0336 4.15682 9.14851 4.1817L12.4717 4.90131C12.7853 4.96924 12.9091 5.35028 12.6953 5.5896L10.4298 8.12508C10.3515 8.21275 10.3136 8.32931 10.3254 8.44628L10.6679 11.8291C10.7003 12.1485 10.3761 12.384 10.0824 12.2545L6.97099 10.8834C6.8634 10.836 6.74085 10.836 6.63326 10.8834L3.5218 12.2545C3.22811 12.3839 2.90398 12.1485 2.93631 11.8291L3.27882 8.44628C3.29067 8.32931 3.25279 8.21275 3.17446 8.12508L0.908959 5.5896C0.695118 5.35028 0.818924 4.96924 1.1326 4.90131L4.45574 4.1817C4.57064 4.15682 4.6698 4.08478 4.72897 3.98319L6.44027 1.04506Z" fill="#AEB9E1"/>
</svg>
